<svg width="1100" height="522" viewBox="0 0 1100 522" fill="none" xmlns="http://www.w3.org/2000/svg">
<rect x="94" y="82" width="46" height="184" rx="23" fill="#FF3399"/>
<rect x="208" y="251" width="46" height="256" rx="23" fill="#FF6CB5"/>
<rect x="151" y="82" width="46" height="358" rx="23" fill="#CB2C7B"/>
<path d="M399 316.35C399 305.85 401.1 296.55 405.3 288.45C409.5 280.25 415.35 273.85 422.85 269.25C430.35 264.65 438.8 262.35 448.2 262.35C460.5 262.35 470.65 265.2 478.65 270.9C486.75 276.6 492.65 284.5 496.35 294.6H493.35C490.15 285.7 484.7 278.55 477 273.15C469.3 267.75 459.7 265.05 448.2 265.05C439.6 265.05 431.8 267.15 424.8 271.35C417.8 275.45 412.25 281.4 408.15 289.2C404.15 296.9 402.15 305.95 402.15 316.35C402.15 326.65 404.15 335.65 408.15 343.35C412.25 351.05 417.8 357 424.8 361.2C431.9 365.3 439.7 367.35 448.2 367.35C459.7 367.35 469.3 364.7 477 359.4C484.7 354 490.15 346.85 493.35 337.95H496.35C492.65 348.05 486.75 355.95 478.65 361.65C470.65 367.25 460.5 370.05 448.2 370.05C438.8 370.05 430.35 367.8 422.85 363.3C415.35 358.7 409.5 352.35 405.3 344.25C401.1 336.05 399 326.75 399 316.35ZM553.883 370.05C546.383 370.05 539.633 368.4 533.633 365.1C527.633 361.7 522.883 356.9 519.383 350.7C515.983 344.4 514.283 337 514.283 328.5C514.283 320 515.983 312.65 519.383 306.45C522.883 300.15 527.633 295.35 533.633 292.05C539.633 288.65 546.383 286.95 553.883 286.95C561.383 286.95 568.133 288.65 574.133 292.05C580.133 295.35 584.833 300.15 588.233 306.45C591.633 312.65 593.333 320 593.333 328.5C593.333 337 591.633 344.4 588.233 350.7C584.833 356.9 580.133 361.7 574.133 365.1C568.133 368.4 561.383 370.05 553.883 370.05ZM553.883 367.35C560.383 367.35 566.383 365.95 571.883 363.15C577.383 360.25 581.833 355.9 585.233 350.1C588.633 344.3 590.333 337.1 590.333 328.5C590.333 319.9 588.633 312.7 585.233 306.9C581.833 301.1 577.383 296.8 571.883 294C566.383 291.1 560.383 289.65 553.883 289.65C547.383 289.65 541.333 291.1 535.733 294C530.233 296.8 525.783 301.15 522.383 307.05C518.983 312.85 517.283 320 517.283 328.5C517.283 337 518.983 344.2 522.383 350.1C525.783 355.9 530.233 360.25 535.733 363.15C541.333 365.95 547.383 367.35 553.883 367.35ZM681.752 288V369H678.752V346.95C676.952 354.65 673.152 360.5 667.352 364.5C661.652 368.5 654.852 370.5 646.952 370.5C637.452 370.5 629.652 367.55 623.552 361.65C617.452 355.75 614.402 346.85 614.402 334.95V288H617.252V335.25C617.252 345.85 619.902 353.95 625.202 359.55C630.502 365.05 637.752 367.8 646.952 367.8C656.552 367.8 664.252 364.7 670.052 358.5C675.852 352.2 678.752 342.95 678.752 330.75V288H681.752ZM710.291 307.65C713.491 293.35 724.141 286.2 742.241 286.2V289.5H740.891C732.391 289.5 725.141 292 719.141 297C713.241 301.9 710.291 309.85 710.291 320.85V369H707.291V288H710.291V307.65ZM784.075 370.05C775.175 370.05 767.975 368.25 762.475 364.65C757.075 361.05 753.925 355.6 753.025 348.3H756.025C756.625 354.3 759.275 359 763.975 362.4C768.775 365.7 775.525 367.35 784.225 367.35C788.625 367.35 792.475 366.5 795.775 364.8C799.175 363.1 801.775 360.85 803.575 358.05C805.375 355.15 806.275 352.05 806.275 348.75C806.275 345.15 805.225 342.25 803.125 340.05C801.125 337.75 798.575 336 795.475 334.8C792.475 333.6 788.325 332.3 783.025 330.9C777.125 329.4 772.325 327.9 768.625 326.4C765.025 324.9 761.925 322.6 759.325 319.5C756.825 316.4 755.575 312.3 755.575 307.2C755.575 303.6 756.675 300.25 758.875 297.15C761.075 294.05 764.075 291.6 767.875 289.8C771.775 287.9 776.125 286.95 780.925 286.95C789.125 286.95 795.725 289 800.725 293.1C805.725 297.2 808.425 302.9 808.825 310.2H805.825C805.525 304.2 803.225 299.3 798.925 295.5C794.725 291.6 788.725 289.65 780.925 289.65C776.725 289.65 772.925 290.45 769.525 292.05C766.125 293.65 763.425 295.8 761.425 298.5C759.525 301.2 758.575 304.1 758.575 307.2C758.575 311.6 759.725 315.15 762.025 317.85C764.325 320.55 767.125 322.55 770.425 323.85C773.825 325.15 778.325 326.55 783.925 328.05C789.625 329.65 794.075 331.1 797.275 332.4C800.575 333.7 803.375 335.7 805.675 338.4C807.975 341 809.125 344.45 809.125 348.75C809.125 352.75 808.025 356.4 805.825 359.7C803.625 362.9 800.625 365.45 796.825 367.35C793.025 369.15 788.775 370.05 784.075 370.05ZM865.734 367.35C874.834 367.35 882.484 365.05 888.684 360.45C894.884 355.85 898.634 349.55 899.934 341.55H902.934C901.534 350.05 897.534 356.95 890.934 362.25C884.434 367.45 876.034 370.05 865.734 370.05C858.234 370.05 851.534 368.4 845.634 365.1C839.734 361.8 835.084 357 831.684 350.7C828.384 344.4 826.734 337 826.734 328.5C826.734 320 828.384 312.6 831.684 306.3C835.084 300 839.734 295.2 845.634 291.9C851.534 288.6 858.234 286.95 865.734 286.95C873.634 286.95 880.384 288.65 885.984 292.05C891.584 295.35 895.784 299.65 898.584 304.95C901.484 310.25 902.934 315.85 902.934 321.75C902.934 325.35 902.884 328.05 902.784 329.85H829.734C829.834 338.15 831.534 345.1 834.834 350.7C838.234 356.3 842.634 360.5 848.034 363.3C853.434 366 859.334 367.35 865.734 367.35ZM865.734 289.65C859.334 289.65 853.434 291.05 848.034 293.85C842.634 296.55 838.234 300.7 834.834 306.3C831.534 311.9 829.834 318.85 829.734 327.15H900.234C900.734 318.85 899.384 311.9 896.184 306.3C893.084 300.7 888.784 296.55 883.284 293.85C877.884 291.05 872.034 289.65 865.734 289.65ZM950.774 370.05C941.874 370.05 934.674 368.25 929.174 364.65C923.774 361.05 920.624 355.6 919.724 348.3H922.724C923.324 354.3 925.974 359 930.674 362.4C935.474 365.7 942.224 367.35 950.924 367.35C955.324 367.35 959.174 366.5 962.474 364.8C965.874 363.1 968.474 360.85 970.274 358.05C972.074 355.15 972.974 352.05 972.974 348.75C972.974 345.15 971.924 342.25 969.824 340.05C967.824 337.75 965.274 336 962.174 334.8C959.174 333.6 955.024 332.3 949.724 330.9C943.824 329.4 939.024 327.9 935.324 326.4C931.724 324.9 928.624 322.6 926.024 319.5C923.524 316.4 922.274 312.3 922.274 307.2C922.274 303.6 923.374 300.25 925.574 297.15C927.774 294.05 930.774 291.6 934.574 289.8C938.474 287.9 942.824 286.95 947.624 286.95C955.824 286.95 962.424 289 967.424 293.1C972.424 297.2 975.124 302.9 975.524 310.2H972.524C972.224 304.2 969.924 299.3 965.624 295.5C961.424 291.6 955.424 289.65 947.624 289.65C943.424 289.65 939.624 290.45 936.224 292.05C932.824 293.65 930.124 295.8 928.124 298.5C926.224 301.2 925.274 304.1 925.274 307.2C925.274 311.6 926.424 315.15 928.724 317.85C931.024 320.55 933.824 322.55 937.124 323.85C940.524 325.15 945.024 326.55 950.624 328.05C956.324 329.65 960.774 331.1 963.974 332.4C967.274 333.7 970.074 335.7 972.374 338.4C974.674 341 975.824 344.45 975.824 348.75C975.824 352.75 974.724 356.4 972.524 359.7C970.324 362.9 967.324 365.45 963.524 367.35C959.724 369.15 955.474 370.05 950.774 370.05Z" fill="black"/>
<path d="M274 95.6C288.8 95.6 301.733 98.5333 312.8 104.4C323.867 110.267 332.4 118.533 338.4 129.2C344.533 139.733 347.6 151.933 347.6 165.8C347.6 179.533 344.533 191.733 338.4 202.4C332.4 213.067 323.8 221.333 312.6 227.2C301.533 233.067 288.667 236 274 236H221.4V95.6H274ZM271.8 206.4C284.733 206.4 294.8 202.867 302 195.8C309.2 188.733 312.8 178.733 312.8 165.8C312.8 152.867 309.2 142.8 302 135.6C294.8 128.4 284.733 124.8 271.8 124.8H255.6V206.4H271.8ZM471.912 178.4C471.912 181.6 471.713 184.933 471.313 188.4H393.913C394.446 195.333 396.646 200.667 400.513 204.4C404.513 208 409.379 209.8 415.113 209.8C423.646 209.8 429.579 206.2 432.913 199H469.313C467.446 206.333 464.046 212.933 459.113 218.8C454.313 224.667 448.246 229.267 440.913 232.6C433.579 235.933 425.379 237.6 416.313 237.6C405.379 237.6 395.646 235.267 387.113 230.6C378.579 225.933 371.913 219.267 367.113 210.6C362.313 201.933 359.913 191.8 359.913 180.2C359.913 168.6 362.246 158.467 366.913 149.8C371.713 141.133 378.379 134.467 386.913 129.8C395.446 125.133 405.246 122.8 416.313 122.8C427.113 122.8 436.713 125.067 445.113 129.6C453.513 134.133 460.046 140.6 464.713 149C469.513 157.4 471.912 167.2 471.912 178.4ZM436.913 169.4C436.913 163.533 434.913 158.867 430.913 155.4C426.913 151.933 421.913 150.2 415.913 150.2C410.179 150.2 405.313 151.867 401.313 155.2C397.446 158.533 395.046 163.267 394.113 169.4H436.913ZM483.155 180.2C483.155 168.6 485.488 158.467 490.155 149.8C494.955 141.133 501.555 134.467 509.955 129.8C518.488 125.133 528.221 122.8 539.155 122.8C553.155 122.8 564.821 126.467 574.155 133.8C583.621 141.133 589.821 151.467 592.755 164.8H556.355C553.288 156.267 547.355 152 538.555 152C532.288 152 527.288 154.467 523.555 159.4C519.821 164.2 517.955 171.133 517.955 180.2C517.955 189.267 519.821 196.267 523.555 201.2C527.288 206 532.288 208.4 538.555 208.4C547.355 208.4 553.288 204.133 556.355 195.6H592.755C589.821 208.667 583.621 218.933 574.155 226.4C564.688 233.867 553.021 237.6 539.155 237.6C528.221 237.6 518.488 235.267 509.955 230.6C501.555 225.933 494.955 219.267 490.155 210.6C485.488 201.933 483.155 191.8 483.155 180.2ZM628.248 112.8C622.248 112.8 617.315 111.067 613.448 107.6C609.715 104 607.848 99.6 607.848 94.4C607.848 89.0667 609.715 84.6667 613.448 81.2C617.315 77.6 622.248 75.8 628.248 75.8C634.115 75.8 638.915 77.6 642.648 81.2C646.515 84.6667 648.448 89.0667 648.448 94.4C648.448 99.6 646.515 104 642.648 107.6C638.915 111.067 634.115 112.8 628.248 112.8ZM645.248 124.4V236H611.048V124.4H645.248ZM812.433 123.2C826.299 123.2 837.299 127.4 845.433 135.8C853.699 144.2 857.833 155.867 857.833 170.8V236H823.833V175.4C823.833 168.2 821.899 162.667 818.033 158.8C814.299 154.8 809.099 152.8 802.433 152.8C795.766 152.8 790.499 154.8 786.633 158.8C782.899 162.667 781.033 168.2 781.033 175.4V236H747.033V175.4C747.033 168.2 745.099 162.667 741.233 158.8C737.499 154.8 732.299 152.8 725.633 152.8C718.966 152.8 713.699 154.8 709.833 158.8C706.099 162.667 704.233 168.2 704.233 175.4V236H670.033V124.4H704.233V138.4C707.699 133.733 712.233 130.067 717.833 127.4C723.433 124.6 729.766 123.2 736.833 123.2C745.233 123.2 752.699 125 759.233 128.6C765.899 132.2 771.099 137.333 774.833 144C778.699 137.867 783.966 132.867 790.633 129C797.299 125.133 804.566 123.2 812.433 123.2ZM874.952 180C874.952 168.533 877.085 158.467 881.352 149.8C885.752 141.133 891.685 134.467 899.152 129.8C906.618 125.133 914.952 122.8 924.152 122.8C932.018 122.8 938.885 124.4 944.752 127.6C950.752 130.8 955.352 135 958.552 140.2V124.4H992.752V236H958.552V220.2C955.218 225.4 950.552 229.6 944.552 232.8C938.685 236 931.818 237.6 923.952 237.6C914.885 237.6 906.618 235.267 899.152 230.6C891.685 225.8 885.752 219.067 881.352 210.4C877.085 201.6 874.952 191.467 874.952 180ZM958.552 180.2C958.552 171.667 956.152 164.933 951.352 160C946.685 155.067 940.952 152.6 934.152 152.6C927.352 152.6 921.552 155.067 916.752 160C912.085 164.8 909.752 171.467 909.752 180C909.752 188.533 912.085 195.333 916.752 200.4C921.552 205.333 927.352 207.8 934.152 207.8C940.952 207.8 946.685 205.333 951.352 200.4C956.152 195.467 958.552 188.733 958.552 180.2Z" fill="black"/>
</svg>
